REM DIRINDEX 1\2,1\3,1\4,1\5
REM DIRNAME "folder01","folder02","folder03","folder04","folder05"
TITLE ""
FILE "P1Q_t_0239-0248.mp3" MP3
  TRACK 01 AUDIO
    TITLE "3:cjc173_1633"
    INDEX 01 00:00:00
  TRACK 02 AUDIO
    TITLE "0:"
    INDEX 01 00:01:33
  TRACK 03 AUDIO
    TITLE "4:cjc173_1634"
    INDEX 01 00:01:53
  TRACK 04 AUDIO
    TITLE "0:"
    INDEX 01 00:03:07
  TRACK 05 AUDIO
    TITLE "5:cjc173_1635"
    INDEX 01 00:03:26
  TRACK 06 AUDIO
    TITLE "0:"
    INDEX 01 00:08:20
  TRACK 07 AUDIO
    TITLE "3:cjc173_1636"
    INDEX 01 00:08:65
  TRACK 08 AUDIO
    TITLE "0:"
    INDEX 01 00:10:01
  TRACK 09 AUDIO
    TITLE "4:cjc173_1637"
    INDEX 01 00:10:22
  TRACK 10 AUDIO
    TITLE "0:"
    INDEX 01 00:14:61
  TRACK 11 AUDIO
    TITLE "5:cjc173_1638"
    INDEX 01 00:15:08
  TRACK 12 AUDIO
    TITLE "0:"
    INDEX 01 00:19:37
  TRACK 13 AUDIO
    TITLE "3:cjc173_1639"
    INDEX 01 00:20:11
  TRACK 14 AUDIO
    TITLE "0:"
    INDEX 01 00:21:40
  TRACK 15 AUDIO
    TITLE "4:cjc173_1640"
    INDEX 01 00:21:63
  TRACK 16 AUDIO
    TITLE "0:"
    INDEX 01 00:24:70
  TRACK 17 AUDIO
    TITLE "5:cjc173_1641"
    INDEX 01 00:25:14
  TRACK 18 AUDIO
    TITLE "0:"
    INDEX 01 00:29:65
  TRACK 19 AUDIO
    TITLE "3:cjc173_1642"
    INDEX 01 00:30:35
  TRACK 20 AUDIO
    TITLE "0:"
    INDEX 01 00:31:44
  TRACK 21 AUDIO
    TITLE "4:cjc173_1643"
    INDEX 01 00:31:68
  TRACK 22 AUDIO
    TITLE "0:"
    INDEX 01 00:33:65
  TRACK 23 AUDIO
    TITLE "5:cjc173_1644"
    INDEX 01 00:34:09
  TRACK 24 AUDIO
    TITLE "0:"
    INDEX 01 00:38:32
  TRACK 25 AUDIO
    TITLE "3:cjc173_1645"
    INDEX 01 00:39:04
  TRACK 26 AUDIO
    TITLE "0:"
    INDEX 01 00:40:12
  TRACK 27 AUDIO
    TITLE "4:cjc173_1646"
    INDEX 01 00:40:33
  TRACK 28 AUDIO
    TITLE "0:"
    INDEX 01 00:42:32
  TRACK 29 AUDIO
    TITLE "5:cjc173_1647"
    INDEX 01 00:42:54
  TRACK 30 AUDIO
    TITLE "0:"
    INDEX 01 00:46:69
  TRACK 31 AUDIO
    TITLE "3:cjc173_1648"
    INDEX 01 00:47:39
  TRACK 32 AUDIO
    TITLE "0:"
    INDEX 01 00:48:50
  TRACK 33 AUDIO
    TITLE "4:cjc173_1649"
    INDEX 01 00:48:70
  TRACK 34 AUDIO
    TITLE "0:"
    INDEX 01 00:51:21
  TRACK 35 AUDIO
    TITLE "5:cjc173_1650"
    INDEX 01 00:51:39
  TRACK 36 AUDIO
    TITLE "0:"
    INDEX 01 00:56:21
  TRACK 37 AUDIO
    TITLE "3:cjc173_1651"
    INDEX 01 00:56:68
  TRACK 38 AUDIO
    TITLE "0:"
    INDEX 01 00:58:04
  TRACK 39 AUDIO
    TITLE "4:cjc173_1652"
    INDEX 01 00:58:25
  TRACK 40 AUDIO
    TITLE "0:"
    INDEX 01 01:00:73
  TRACK 41 AUDIO
    TITLE "5:cjc173_1653"
    INDEX 01 01:01:18
  TRACK 42 AUDIO
    TITLE "0:"
    INDEX 01 01:06:37
  TRACK 43 AUDIO
    TITLE "3:cjc173_1654"
    INDEX 01 01:07:07
  TRACK 44 AUDIO
    TITLE "0:"
    INDEX 01 01:08:12
  TRACK 45 AUDIO
    TITLE "4:cjc173_1655"
    INDEX 01 01:08:32
  TRACK 46 AUDIO
    TITLE "0:"
    INDEX 01 01:10:68
  TRACK 47 AUDIO
    TITLE "5:cjc173_1656"
    INDEX 01 01:11:10
  TRACK 48 AUDIO
    TITLE "0:"
    INDEX 01 01:16:70
  TRACK 49 AUDIO
    TITLE "3:cjc173_1657"
    INDEX 01 01:17:38
  TRACK 50 AUDIO
    TITLE "0:"
    INDEX 01 01:19:00
  TRACK 51 AUDIO
    TITLE "4:cjc173_1658"
    INDEX 01 01:19:20
  TRACK 52 AUDIO
    TITLE "0:"
    INDEX 01 01:20:49
  TRACK 53 AUDIO
    TITLE "5:cjc173_1659"
    INDEX 01 01:20:68
  TRACK 54 AUDIO
    TITLE "0:"
    INDEX 01 01:25:34
  TRACK 55 AUDIO
    TITLE "3:cjc173_1660"
    INDEX 01 01:26:04
  TRACK 56 AUDIO
    TITLE "0:"
    INDEX 01 01:27:09
  TRACK 57 AUDIO
    TITLE "4:cjc173_1661"
    INDEX 01 01:27:31
  TRACK 58 AUDIO
    TITLE "0:"
    INDEX 01 01:29:51
  TRACK 59 AUDIO
    TITLE "5:cjc173_1662"
    INDEX 01 01:29:71
  TRACK 60 AUDIO
    TITLE "0:"
    INDEX 01 01:35:32
